<svg width="511" height="519" viewBox="0 0 511 519" fill="none" xmlns="http://www.w3.org/2000/svg">
<path d="M255.315 445.754V297.169L125.565 221.831V519L255.315 445.754Z" fill="#53BD95"/>
<path d="M125.565 221.831L0 297.169L125.565 372.508L255.315 297.169L125.565 221.831Z" fill="#80D9B7"/>
<path d="M125.565 519V372.508L0 297.169V443.661L125.565 519Z" fill="#71CEAB"/>
<path d="M510.629 299.262V150.677L380.879 75.3387V372.508L510.629 299.262Z" fill="#53BD95"/>
<path d="M380.879 75.3387L255.315 150.677L380.879 226.016L510.629 150.677L380.879 75.3387Z" fill="#80D9B7"/>
<path d="M380.879 372.508V226.016L255.315 150.677V297.169L380.879 372.508Z" fill="#71CEAB"/>
<path d="M380.879 223.923V75.3387L251.129 0V297.169L380.879 223.923Z" fill="#53BD95"/>
<path d="M251.129 0L125.565 75.3387L251.129 150.677L380.879 75.3387L251.129 0Z" fill="#80D9B7"/>
<path d="M251.129 297.169V150.677L125.565 75.3387V221.831L251.129 297.169Z" fill="#71CEAB"/>
</svg>
